<?xml version="1.0" encoding="utf-8" ?>
<svg baseProfile="full" height="180" version="1.1" width="180" xmlns="http://www.w3.org/2000/svg" xmlns:ev="http://www.w3.org/2001/xml-events" xmlns:xlink="http://www.w3.org/1999/xlink"><defs /><rect fill="rgb(255,255,255)" height="20" stroke="black" stroke-width="1" width="20" x="20" y="20" /><text alignment-baseline="central" font-size="8px" text-anchor="middle" x="30" y="30">0</text><rect fill="rgb(230,230,230)" height="20" stroke="black" stroke-width="1" width="20" x="40" y="20" /><text alignment-baseline="central" font-size="8px" text-anchor="middle" x="50" y="30">1</text><rect fill="rgb(205,205,205)" height="20" stroke="black" stroke-width="1" width="20" x="60" y="20" /><text alignment-baseline="central" font-size="8px" text-anchor="middle" x="70" y="30">2</text><rect fill="rgb(180,180,180)" height="20" stroke="black" stroke-width="1" width="20" x="80" y="20" /><text alignment-baseline="central" font-size="8px" text-anchor="middle" x="90" y="30">3</text><rect fill="rgb(155,155,155)" height="20" stroke="black" stroke-width="1" width="20" x="100" y="20" /><text alignment-baseline="central" font-size="8px" text-anchor="middle" x="110" y="30">4</text><rect fill="rgb(130,130,130)" height="20" stroke="black" stroke-width="1" width="20" x="120" y="20" /><text alignment-baseline="central" font-size="8px" text-anchor="middle" x="130" y="30">5</text><rect fill="rgb(105,105,105)" height="20" stroke="black" stroke-width="1" width="20" x="140" y="20" /><text alignment-baseline="central" font-size="8px" text-anchor="middle" x="150" y="30">6</text><rect fill="rgb(80,80,80)" height="20" stroke="black" stroke-width="1" width="20" x="160" y="20" /><text alignment-baseline="central" font-size="8px" text-anchor="middle" x="170" y="30">7</text><rect fill="rgb(255,255,255)" height="20" stroke="black" stroke-width="1" width="20" x="20" y="40" /><text alignment-baseline="central" font-size="8px" text-anchor="middle" x="30" y="50">8</text><rect fill="rgb(230,230,230)" height="20" stroke="black" stroke-width="1" width="20" x="40" y="40" /><text alignment-baseline="central" font-size="8px" text-anchor="middle" x="50" y="50">9</text><rect fill="rgb(205,205,205)" height="20" stroke="black" stroke-width="1" width="20" x="60" y="40" /><text alignment-baseline="central" font-size="8px" text-anchor="middle" x="70" y="50">10</text><rect fill="rgb(180,180,180)" height="20" stroke="black" stroke-width="1" width="20" x="80" y="40" /><text alignment-baseline="central" font-size="8px" text-anchor="middle" x="90" y="50">11</text><rect fill="rgb(155,155,155)" height="20" stroke="black" stroke-width="1" width="20" x="100" y="40" /><text alignment-baseline="central" font-size="8px" text-anchor="middle" x="110" y="50">12</text><rect fill="rgb(130,130,130)" height="20" stroke="black" stroke-width="1" width="20" x="120" y="40" /><text alignment-baseline="central" font-size="8px" text-anchor="middle" x="130" y="50">13</text><rect fill="rgb(105,105,105)" height="20" stroke="black" stroke-width="1" width="20" x="140" y="40" /><text alignment-baseline="central" font-size="8px" text-anchor="middle" x="150" y="50">14</text><rect fill="rgb(80,80,80)" height="20" stroke="black" stroke-width="1" width="20" x="160" y="40" /><text alignment-baseline="central" font-size="8px" text-anchor="middle" x="170" y="50">15</text><rect fill="rgb(255,255,255)" height="20" stroke="black" stroke-width="1" width="20" x="20" y="60" /><text alignment-baseline="central" font-size="8px" text-anchor="middle" x="30" y="70">16</text><rect fill="rgb(230,230,230)" height="20" stroke="black" stroke-width="1" width="20" x="40" y="60" /><text alignment-baseline="central" font-size="8px" text-anchor="middle" x="50" y="70">17</text><rect fill="rgb(205,205,205)" height="20" stroke="black" stroke-width="1" width="20" x="60" y="60" /><text alignment-baseline="central" font-size="8px" text-anchor="middle" x="70" y="70">18</text><rect fill="rgb(180,180,180)" height="20" stroke="black" stroke-width="1" width="20" x="80" y="60" /><text alignment-baseline="central" font-size="8px" text-anchor="middle" x="90" y="70">19</text><rect fill="rgb(155,155,155)" height="20" stroke="black" stroke-width="1" width="20" x="100" y="60" /><text alignment-baseline="central" font-size="8px" text-anchor="middle" x="110" y="70">20</text><rect fill="rgb(130,130,130)" height="20" stroke="black" stroke-width="1" width="20" x="120" y="60" /><text alignment-baseline="central" font-size="8px" text-anchor="middle" x="130" y="70">21</text><rect fill="rgb(105,105,105)" height="20" stroke="black" stroke-width="1" width="20" x="140" y="60" /><text alignment-baseline="central" font-size="8px" text-anchor="middle" x="150" y="70">22</text><rect fill="rgb(80,80,80)" height="20" stroke="black" stroke-width="1" width="20" x="160" y="60" /><text alignment-baseline="central" font-size="8px" text-anchor="middle" x="170" y="70">23</text><rect fill="rgb(255,255,255)" height="20" stroke="black" stroke-width="1" width="20" x="20" y="80" /><text alignment-baseline="central" font-size="8px" text-anchor="middle" x="30" y="90">24</text><rect fill="rgb(230,230,230)" height="20" stroke="black" stroke-width="1" width="20" x="40" y="80" /><text alignment-baseline="central" font-size="8px" text-anchor="middle" x="50" y="90">25</text><rect fill="rgb(205,205,205)" height="20" stroke="black" stroke-width="1" width="20" x="60" y="80" /><text alignment-baseline="central" font-size="8px" text-anchor="middle" x="70" y="90">26</text><rect fill="rgb(180,180,180)" height="20" stroke="black" stroke-width="1" width="20" x="80" y="80" /><text alignment-baseline="central" font-size="8px" text-anchor="middle" x="90" y="90">27</text><rect fill="rgb(155,155,155)" height="20" stroke="black" stroke-width="1" width="20" x="100" y="80" /><text alignment-baseline="central" font-size="8px" text-anchor="middle" x="110" y="90">28</text><rect fill="rgb(130,130,130)" height="20" stroke="black" stroke-width="1" width="20" x="120" y="80" /><text alignment-baseline="central" font-size="8px" text-anchor="middle" x="130" y="90">29</text><rect fill="rgb(105,105,105)" height="20" stroke="black" stroke-width="1" width="20" x="140" y="80" /><text alignment-baseline="central" font-size="8px" text-anchor="middle" x="150" y="90">30</text><rect fill="rgb(80,80,80)" height="20" stroke="black" stroke-width="1" width="20" x="160" y="80" /><text alignment-baseline="central" font-size="8px" text-anchor="middle" x="170" y="90">31</text><rect fill="rgb(255,255,255)" height="20" stroke="black" stroke-width="1" width="20" x="20" y="100" /><text alignment-baseline="central" font-size="8px" text-anchor="middle" x="30" y="110">32</text><rect fill="rgb(230,230,230)" height="20" stroke="black" stroke-width="1" width="20" x="40" y="100" /><text alignment-baseline="central" font-size="8px" text-anchor="middle" x="50" y="110">33</text><rect fill="rgb(205,205,205)" height="20" stroke="black" stroke-width="1" width="20" x="60" y="100" /><text alignment-baseline="central" font-size="8px" text-anchor="middle" x="70" y="110">34</text><rect fill="rgb(180,180,180)" height="20" stroke="black" stroke-width="1" width="20" x="80" y="100" /><text alignment-baseline="central" font-size="8px" text-anchor="middle" x="90" y="110">35</text><rect fill="rgb(155,155,155)" height="20" stroke="black" stroke-width="1" width="20" x="100" y="100" /><text alignment-baseline="central" font-size="8px" text-anchor="middle" x="110" y="110">36</text><rect fill="rgb(130,130,130)" height="20" stroke="black" stroke-width="1" width="20" x="120" y="100" /><text alignment-baseline="central" font-size="8px" text-anchor="middle" x="130" y="110">37</text><rect fill="rgb(105,105,105)" height="20" stroke="black" stroke-width="1" width="20" x="140" y="100" /><text alignment-baseline="central" font-size="8px" text-anchor="middle" x="150" y="110">38</text><rect fill="rgb(80,80,80)" height="20" stroke="black" stroke-width="1" width="20" x="160" y="100" /><text alignment-baseline="central" font-size="8px" text-anchor="middle" x="170" y="110">39</text><rect fill="rgb(255,255,255)" height="20" stroke="black" stroke-width="1" width="20" x="20" y="120" /><text alignment-baseline="central" font-size="8px" text-anchor="middle" x="30" y="130">40</text><rect fill="rgb(230,230,230)" height="20" stroke="black" stroke-width="1" width="20" x="40" y="120" /><text alignment-baseline="central" font-size="8px" text-anchor="middle" x="50" y="130">41</text><rect fill="rgb(205,205,205)" height="20" stroke="black" stroke-width="1" width="20" x="60" y="120" /><text alignment-baseline="central" font-size="8px" text-anchor="middle" x="70" y="130">42</text><rect fill="rgb(180,180,180)" height="20" stroke="black" stroke-width="1" width="20" x="80" y="120" /><text alignment-baseline="central" font-size="8px" text-anchor="middle" x="90" y="130">43</text><rect fill="rgb(155,155,155)" height="20" stroke="black" stroke-width="1" width="20" x="100" y="120" /><text alignment-baseline="central" font-size="8px" text-anchor="middle" x="110" y="130">44</text><rect fill="rgb(130,130,130)" height="20" stroke="black" stroke-width="1" width="20" x="120" y="120" /><text alignment-baseline="central" font-size="8px" text-anchor="middle" x="130" y="130">45</text><rect fill="rgb(105,105,105)" height="20" stroke="black" stroke-width="1" width="20" x="140" y="120" /><text alignment-baseline="central" font-size="8px" text-anchor="middle" x="150" y="130">46</text><rect fill="rgb(80,80,80)" height="20" stroke="black" stroke-width="1" width="20" x="160" y="120" /><text alignment-baseline="central" font-size="8px" text-anchor="middle" x="170" y="130">47</text><rect fill="rgb(255,255,255)" height="20" stroke="black" stroke-width="1" width="20" x="20" y="140" /><text alignment-baseline="central" font-size="8px" text-anchor="middle" x="30" y="150">48</text><rect fill="rgb(230,230,230)" height="20" stroke="black" stroke-width="1" width="20" x="40" y="140" /><text alignment-baseline="central" font-size="8px" text-anchor="middle" x="50" y="150">49</text><rect fill="rgb(205,205,205)" height="20" stroke="black" stroke-width="1" width="20" x="60" y="140" /><text alignment-baseline="central" font-size="8px" text-anchor="middle" x="70" y="150">50</text><rect fill="rgb(180,180,180)" height="20" stroke="black" stroke-width="1" width="20" x="80" y="140" /><text alignment-baseline="central" font-size="8px" text-anchor="middle" x="90" y="150">51</text><rect fill="rgb(155,155,155)" height="20" stroke="black" stroke-width="1" width="20" x="100" y="140" /><text alignment-baseline="central" font-size="8px" text-anchor="middle" x="110" y="150">52</text><rect fill="rgb(130,130,130)" height="20" stroke="black" stroke-width="1" width="20" x="120" y="140" /><text alignment-baseline="central" font-size="8px" text-anchor="middle" x="130" y="150">53</text><rect fill="rgb(105,105,105)" height="20" stroke="black" stroke-width="1" width="20" x="140" y="140" /><text alignment-baseline="central" font-size="8px" text-anchor="middle" x="150" y="150">54</text><rect fill="rgb(80,80,80)" height="20" stroke="black" stroke-width="1" width="20" x="160" y="140" /><text alignment-baseline="central" font-size="8px" text-anchor="middle" x="170" y="150">55</text><rect fill="rgb(255,255,255)" height="20" stroke="black" stroke-width="1" width="20" x="20" y="160" /><text alignment-baseline="central" font-size="8px" text-anchor="middle" x="30" y="170">56</text><rect fill="rgb(230,230,230)" height="20" stroke="black" stroke-width="1" width="20" x="40" y="160" /><text alignment-baseline="central" font-size="8px" text-anchor="middle" x="50" y="170">57</text><rect fill="rgb(205,205,205)" height="20" stroke="black" stroke-width="1" width="20" x="60" y="160" /><text alignment-baseline="central" font-size="8px" text-anchor="middle" x="70" y="170">58</text><rect fill="rgb(180,180,180)" height="20" stroke="black" stroke-width="1" width="20" x="80" y="160" /><text alignment-baseline="central" font-size="8px" text-anchor="middle" x="90" y="170">59</text><rect fill="rgb(155,155,155)" height="20" stroke="black" stroke-width="1" width="20" x="100" y="160" /><text alignment-baseline="central" font-size="8px" text-anchor="middle" x="110" y="170">60</text><rect fill="rgb(130,130,130)" height="20" stroke="black" stroke-width="1" width="20" x="120" y="160" /><text alignment-baseline="central" font-size="8px" text-anchor="middle" x="130" y="170">61</text><rect fill="rgb(105,105,105)" height="20" stroke="black" stroke-width="1" width="20" x="140" y="160" /><text alignment-baseline="central" font-size="8px" text-anchor="middle" x="150" y="170">62</text><rect fill="rgb(80,80,80)" height="20" stroke="black" stroke-width="1" width="20" x="160" y="160" /><text alignment-baseline="central" font-size="8px" text-anchor="middle" x="170" y="170">63</text><text alignment-baseline="central" font-size="8px" text-anchor="middle" x="30" y="10">0</text><text alignment-baseline="central" font-size="8px" text-anchor="middle" x="50" y="10">1</text><text alignment-baseline="central" font-size="8px" text-anchor="middle" x="70" y="10">2</text><text alignment-baseline="central" font-size="8px" text-anchor="middle" x="90" y="10">3</text><text alignment-baseline="central" font-size="8px" text-anchor="middle" x="110" y="10">4</text><text alignment-baseline="central" font-size="8px" text-anchor="middle" x="130" y="10">5</text><text alignment-baseline="central" font-size="8px" text-anchor="middle" x="150" y="10">6</text><text alignment-baseline="central" font-size="8px" text-anchor="middle" x="170" y="10">7</text><text alignment-baseline="central" font-size="8px" text-anchor="middle" x="10" y="30">0</text><text alignment-baseline="central" font-size="8px" text-anchor="middle" x="10" y="50">1</text><text alignment-baseline="central" font-size="8px" text-anchor="middle" x="10" y="70">2</text><text alignment-baseline="central" font-size="8px" text-anchor="middle" x="10" y="90">3</text><text alignment-baseline="central" font-size="8px" text-anchor="middle" x="10" y="110">4</text><text alignment-baseline="central" font-size="8px" text-anchor="middle" x="10" y="130">5</text><text alignment-baseline="central" font-size="8px" text-anchor="middle" x="10" y="150">6</text><text alignment-baseline="central" font-size="8px" text-anchor="middle" x="10" y="170">7</text></svg>