<?xml version="1.0" encoding="utf-8" ?>
<svg baseProfile="full" height="180" version="1.1" width="180" xmlns="http://www.w3.org/2000/svg" xmlns:ev="http://www.w3.org/2001/xml-events" xmlns:xlink="http://www.w3.org/1999/xlink"><defs /><rect fill="rgb(255,255,255)" height="20" stroke="black" stroke-width="1" width="20" x="20" y="20" /><text alignment-baseline="central" font-size="8px" text-anchor="middle" x="30" y="30">0</text><rect fill="rgb(230,230,230)" height="20" stroke="black" stroke-width="1" width="20" x="40" y="20" /><text alignment-baseline="central" font-size="8px" text-anchor="middle" x="50" y="30">1</text><rect fill="rgb(205,205,205)" height="20" stroke="black" stroke-width="1" width="20" x="60" y="20" /><text alignment-baseline="central" font-size="8px" text-anchor="middle" x="70" y="30">2</text><rect fill="rgb(180,180,180)" height="20" stroke="black" stroke-width="1" width="20" x="80" y="20" /><text alignment-baseline="central" font-size="8px" text-anchor="middle" x="90" y="30">3</text><rect fill="rgb(155,155,155)" height="20" stroke="black" stroke-width="1" width="20" x="100" y="20" /><text alignment-baseline="central" font-size="8px" text-anchor="middle" x="110" y="30">4</text><rect fill="rgb(130,130,130)" height="20" stroke="black" stroke-width="1" width="20" x="120" y="20" /><text alignment-baseline="central" font-size="8px" text-anchor="middle" x="130" y="30">5</text><rect fill="rgb(105,105,105)" height="20" stroke="black" stroke-width="1" width="20" x="140" y="20" /><text alignment-baseline="central" font-size="8px" text-anchor="middle" x="150" y="30">6</text><rect fill="rgb(80,80,80)" height="20" stroke="black" stroke-width="1" width="20" x="160" y="20" /><text alignment-baseline="central" font-size="8px" text-anchor="middle" x="170" y="30">7</text><rect fill="rgb(205,205,205)" height="20" stroke="black" stroke-width="1" width="20" x="20" y="40" /><text alignment-baseline="central" font-size="8px" text-anchor="middle" x="30" y="50">10</text><rect fill="rgb(180,180,180)" height="20" stroke="black" stroke-width="1" width="20" x="40" y="40" /><text alignment-baseline="central" font-size="8px" text-anchor="middle" x="50" y="50">11</text><rect fill="rgb(155,155,155)" height="20" stroke="black" stroke-width="1" width="20" x="60" y="40" /><text alignment-baseline="central" font-size="8px" text-anchor="middle" x="70" y="50">12</text><rect fill="rgb(130,130,130)" height="20" stroke="black" stroke-width="1" width="20" x="80" y="40" /><text alignment-baseline="central" font-size="8px" text-anchor="middle" x="90" y="50">13</text><rect fill="rgb(105,105,105)" height="20" stroke="black" stroke-width="1" width="20" x="100" y="40" /><text alignment-baseline="central" font-size="8px" text-anchor="middle" x="110" y="50">14</text><rect fill="rgb(80,80,80)" height="20" stroke="black" stroke-width="1" width="20" x="120" y="40" /><text alignment-baseline="central" font-size="8px" text-anchor="middle" x="130" y="50">15</text><rect fill="rgb(255,255,255)" height="20" stroke="black" stroke-width="1" width="20" x="140" y="40" /><text alignment-baseline="central" font-size="8px" text-anchor="middle" x="150" y="50">16</text><rect fill="rgb(230,230,230)" height="20" stroke="black" stroke-width="1" width="20" x="160" y="40" /><text alignment-baseline="central" font-size="8px" text-anchor="middle" x="170" y="50">17</text><rect fill="rgb(155,155,155)" height="20" stroke="black" stroke-width="1" width="20" x="20" y="60" /><text alignment-baseline="central" font-size="8px" text-anchor="middle" x="30" y="70">20</text><rect fill="rgb(130,130,130)" height="20" stroke="black" stroke-width="1" width="20" x="40" y="60" /><text alignment-baseline="central" font-size="8px" text-anchor="middle" x="50" y="70">21</text><rect fill="rgb(105,105,105)" height="20" stroke="black" stroke-width="1" width="20" x="60" y="60" /><text alignment-baseline="central" font-size="8px" text-anchor="middle" x="70" y="70">22</text><rect fill="rgb(80,80,80)" height="20" stroke="black" stroke-width="1" width="20" x="80" y="60" /><text alignment-baseline="central" font-size="8px" text-anchor="middle" x="90" y="70">23</text><rect fill="rgb(255,255,255)" height="20" stroke="black" stroke-width="1" width="20" x="100" y="60" /><text alignment-baseline="central" font-size="8px" text-anchor="middle" x="110" y="70">24</text><rect fill="rgb(230,230,230)" height="20" stroke="black" stroke-width="1" width="20" x="120" y="60" /><text alignment-baseline="central" font-size="8px" text-anchor="middle" x="130" y="70">25</text><rect fill="rgb(205,205,205)" height="20" stroke="black" stroke-width="1" width="20" x="140" y="60" /><text alignment-baseline="central" font-size="8px" text-anchor="middle" x="150" y="70">26</text><rect fill="rgb(180,180,180)" height="20" stroke="black" stroke-width="1" width="20" x="160" y="60" /><text alignment-baseline="central" font-size="8px" text-anchor="middle" x="170" y="70">27</text><rect fill="rgb(105,105,105)" height="20" stroke="black" stroke-width="1" width="20" x="20" y="80" /><text alignment-baseline="central" font-size="8px" text-anchor="middle" x="30" y="90">30</text><rect fill="rgb(80,80,80)" height="20" stroke="black" stroke-width="1" width="20" x="40" y="80" /><text alignment-baseline="central" font-size="8px" text-anchor="middle" x="50" y="90">31</text><rect fill="rgb(255,255,255)" height="20" stroke="black" stroke-width="1" width="20" x="60" y="80" /><text alignment-baseline="central" font-size="8px" text-anchor="middle" x="70" y="90">32</text><rect fill="rgb(230,230,230)" height="20" stroke="black" stroke-width="1" width="20" x="80" y="80" /><text alignment-baseline="central" font-size="8px" text-anchor="middle" x="90" y="90">33</text><rect fill="rgb(205,205,205)" height="20" stroke="black" stroke-width="1" width="20" x="100" y="80" /><text alignment-baseline="central" font-size="8px" text-anchor="middle" x="110" y="90">34</text><rect fill="rgb(180,180,180)" height="20" stroke="black" stroke-width="1" width="20" x="120" y="80" /><text alignment-baseline="central" font-size="8px" text-anchor="middle" x="130" y="90">35</text><rect fill="rgb(155,155,155)" height="20" stroke="black" stroke-width="1" width="20" x="140" y="80" /><text alignment-baseline="central" font-size="8px" text-anchor="middle" x="150" y="90">36</text><rect fill="rgb(130,130,130)" height="20" stroke="black" stroke-width="1" width="20" x="160" y="80" /><text alignment-baseline="central" font-size="8px" text-anchor="middle" x="170" y="90">37</text><rect fill="rgb(255,255,255)" height="20" stroke="black" stroke-width="1" width="20" x="20" y="100" /><text alignment-baseline="central" font-size="8px" text-anchor="middle" x="30" y="110">40</text><rect fill="rgb(230,230,230)" height="20" stroke="black" stroke-width="1" width="20" x="40" y="100" /><text alignment-baseline="central" font-size="8px" text-anchor="middle" x="50" y="110">41</text><rect fill="rgb(205,205,205)" height="20" stroke="black" stroke-width="1" width="20" x="60" y="100" /><text alignment-baseline="central" font-size="8px" text-anchor="middle" x="70" y="110">42</text><rect fill="rgb(180,180,180)" height="20" stroke="black" stroke-width="1" width="20" x="80" y="100" /><text alignment-baseline="central" font-size="8px" text-anchor="middle" x="90" y="110">43</text><rect fill="rgb(155,155,155)" height="20" stroke="black" stroke-width="1" width="20" x="100" y="100" /><text alignment-baseline="central" font-size="8px" text-anchor="middle" x="110" y="110">44</text><rect fill="rgb(130,130,130)" height="20" stroke="black" stroke-width="1" width="20" x="120" y="100" /><text alignment-baseline="central" font-size="8px" text-anchor="middle" x="130" y="110">45</text><rect fill="rgb(105,105,105)" height="20" stroke="black" stroke-width="1" width="20" x="140" y="100" /><text alignment-baseline="central" font-size="8px" text-anchor="middle" x="150" y="110">46</text><rect fill="rgb(80,80,80)" height="20" stroke="black" stroke-width="1" width="20" x="160" y="100" /><text alignment-baseline="central" font-size="8px" text-anchor="middle" x="170" y="110">47</text><rect fill="rgb(205,205,205)" height="20" stroke="black" stroke-width="1" width="20" x="20" y="120" /><text alignment-baseline="central" font-size="8px" text-anchor="middle" x="30" y="130">50</text><rect fill="rgb(180,180,180)" height="20" stroke="black" stroke-width="1" width="20" x="40" y="120" /><text alignment-baseline="central" font-size="8px" text-anchor="middle" x="50" y="130">51</text><rect fill="rgb(155,155,155)" height="20" stroke="black" stroke-width="1" width="20" x="60" y="120" /><text alignment-baseline="central" font-size="8px" text-anchor="middle" x="70" y="130">52</text><rect fill="rgb(130,130,130)" height="20" stroke="black" stroke-width="1" width="20" x="80" y="120" /><text alignment-baseline="central" font-size="8px" text-anchor="middle" x="90" y="130">53</text><rect fill="rgb(105,105,105)" height="20" stroke="black" stroke-width="1" width="20" x="100" y="120" /><text alignment-baseline="central" font-size="8px" text-anchor="middle" x="110" y="130">54</text><rect fill="rgb(80,80,80)" height="20" stroke="black" stroke-width="1" width="20" x="120" y="120" /><text alignment-baseline="central" font-size="8px" text-anchor="middle" x="130" y="130">55</text><rect fill="rgb(255,255,255)" height="20" stroke="black" stroke-width="1" width="20" x="140" y="120" /><text alignment-baseline="central" font-size="8px" text-anchor="middle" x="150" y="130">56</text><rect fill="rgb(230,230,230)" height="20" stroke="black" stroke-width="1" width="20" x="160" y="120" /><text alignment-baseline="central" font-size="8px" text-anchor="middle" x="170" y="130">57</text><rect fill="rgb(155,155,155)" height="20" stroke="black" stroke-width="1" width="20" x="20" y="140" /><text alignment-baseline="central" font-size="8px" text-anchor="middle" x="30" y="150">60</text><rect fill="rgb(130,130,130)" height="20" stroke="black" stroke-width="1" width="20" x="40" y="140" /><text alignment-baseline="central" font-size="8px" text-anchor="middle" x="50" y="150">61</text><rect fill="rgb(105,105,105)" height="20" stroke="black" stroke-width="1" width="20" x="60" y="140" /><text alignment-baseline="central" font-size="8px" text-anchor="middle" x="70" y="150">62</text><rect fill="rgb(80,80,80)" height="20" stroke="black" stroke-width="1" width="20" x="80" y="140" /><text alignment-baseline="central" font-size="8px" text-anchor="middle" x="90" y="150">63</text><rect fill="rgb(255,255,255)" height="20" stroke="black" stroke-width="1" width="20" x="100" y="140" /><text alignment-baseline="central" font-size="8px" text-anchor="middle" x="110" y="150">64</text><rect fill="rgb(230,230,230)" height="20" stroke="black" stroke-width="1" width="20" x="120" y="140" /><text alignment-baseline="central" font-size="8px" text-anchor="middle" x="130" y="150">65</text><rect fill="rgb(205,205,205)" height="20" stroke="black" stroke-width="1" width="20" x="140" y="140" /><text alignment-baseline="central" font-size="8px" text-anchor="middle" x="150" y="150">66</text><rect fill="rgb(180,180,180)" height="20" stroke="black" stroke-width="1" width="20" x="160" y="140" /><text alignment-baseline="central" font-size="8px" text-anchor="middle" x="170" y="150">67</text><rect fill="rgb(105,105,105)" height="20" stroke="black" stroke-width="1" width="20" x="20" y="160" /><text alignment-baseline="central" font-size="8px" text-anchor="middle" x="30" y="170">70</text><rect fill="rgb(80,80,80)" height="20" stroke="black" stroke-width="1" width="20" x="40" y="160" /><text alignment-baseline="central" font-size="8px" text-anchor="middle" x="50" y="170">71</text><rect fill="rgb(255,255,255)" height="20" stroke="black" stroke-width="1" width="20" x="60" y="160" /><text alignment-baseline="central" font-size="8px" text-anchor="middle" x="70" y="170">72</text><rect fill="rgb(230,230,230)" height="20" stroke="black" stroke-width="1" width="20" x="80" y="160" /><text alignment-baseline="central" font-size="8px" text-anchor="middle" x="90" y="170">73</text><rect fill="rgb(205,205,205)" height="20" stroke="black" stroke-width="1" width="20" x="100" y="160" /><text alignment-baseline="central" font-size="8px" text-anchor="middle" x="110" y="170">74</text><rect fill="rgb(180,180,180)" height="20" stroke="black" stroke-width="1" width="20" x="120" y="160" /><text alignment-baseline="central" font-size="8px" text-anchor="middle" x="130" y="170">75</text><rect fill="rgb(155,155,155)" height="20" stroke="black" stroke-width="1" width="20" x="140" y="160" /><text alignment-baseline="central" font-size="8px" text-anchor="middle" x="150" y="170">76</text><rect fill="rgb(130,130,130)" height="20" stroke="black" stroke-width="1" width="20" x="160" y="160" /><text alignment-baseline="central" font-size="8px" text-anchor="middle" x="170" y="170">77</text><text alignment-baseline="central" font-size="8px" text-anchor="middle" x="30" y="10">0</text><text alignment-baseline="central" font-size="8px" text-anchor="middle" x="50" y="10">1</text><text alignment-baseline="central" font-size="8px" text-anchor="middle" x="70" y="10">2</text><text alignment-baseline="central" font-size="8px" text-anchor="middle" x="90" y="10">3</text><text alignment-baseline="central" font-size="8px" text-anchor="middle" x="110" y="10">4</text><text alignment-baseline="central" font-size="8px" text-anchor="middle" x="130" y="10">5</text><text alignment-baseline="central" font-size="8px" text-anchor="middle" x="150" y="10">6</text><text alignment-baseline="central" font-size="8px" text-anchor="middle" x="170" y="10">7</text><text alignment-baseline="central" font-size="8px" text-anchor="middle" x="10" y="30">0</text><text alignment-baseline="central" font-size="8px" text-anchor="middle" x="10" y="50">1</text><text alignment-baseline="central" font-size="8px" text-anchor="middle" x="10" y="70">2</text><text alignment-baseline="central" font-size="8px" text-anchor="middle" x="10" y="90">3</text><text alignment-baseline="central" font-size="8px" text-anchor="middle" x="10" y="110">4</text><text alignment-baseline="central" font-size="8px" text-anchor="middle" x="10" y="130">5</text><text alignment-baseline="central" font-size="8px" text-anchor="middle" x="10" y="150">6</text><text alignment-baseline="central" font-size="8px" text-anchor="middle" x="10" y="170">7</text></svg>