<?xml version="1.0" encoding="utf-8" ?>
<svg baseProfile="full" height="155" version="1.1" width="200" xmlns="http://www.w3.org/2000/svg" xmlns:ev="http://www.w3.org/2001/xml-events" xmlns:xlink="http://www.w3.org/1999/xlink"><defs /><rect fill="rgb(255,255,255)" height="20" stroke="black" stroke-width="0.5" width="20" x="30" y="25" /><text alignment-baseline="central" font-size="8px" text-anchor="middle" x="40" y="35">0</text><rect fill="rgb(105,105,105)" height="20" stroke="black" stroke-width="0.5" width="20" x="50" y="25" /><text alignment-baseline="central" font-size="8px" text-anchor="middle" x="60" y="35">6</text><rect fill="rgb(230,230,230)" height="20" stroke="black" stroke-width="0.5" width="20" x="30" y="45" /><text alignment-baseline="central" font-size="8px" text-anchor="middle" x="40" y="55">1</text><rect fill="rgb(80,80,80)" height="20" stroke="black" stroke-width="0.5" width="20" x="50" y="45" /><text alignment-baseline="central" font-size="8px" text-anchor="middle" x="60" y="55">7</text><rect fill="rgb(155,155,155)" height="20" stroke="black" stroke-width="0.5" width="20" x="70" y="25" /><text alignment-baseline="central" font-size="8px" text-anchor="middle" x="80" y="35">12</text><rect fill="rgb(205,205,205)" height="20" stroke="black" stroke-width="0.5" width="20" x="90" y="25" /><text alignment-baseline="central" font-size="8px" text-anchor="middle" x="100" y="35">18</text><rect fill="rgb(130,130,130)" height="20" stroke="black" stroke-width="0.5" width="20" x="70" y="45" /><text alignment-baseline="central" font-size="8px" text-anchor="middle" x="80" y="55">13</text><rect fill="rgb(180,180,180)" height="20" stroke="black" stroke-width="0.5" width="20" x="90" y="45" /><text alignment-baseline="central" font-size="8px" text-anchor="middle" x="100" y="55">19</text><rect fill="rgb(255,255,255)" height="20" stroke="black" stroke-width="0.5" width="20" x="110" y="25" /><text alignment-baseline="central" font-size="8px" text-anchor="middle" x="120" y="35">24</text><rect fill="rgb(105,105,105)" height="20" stroke="black" stroke-width="0.5" width="20" x="130" y="25" /><text alignment-baseline="central" font-size="8px" text-anchor="middle" x="140" y="35">30</text><rect fill="rgb(230,230,230)" height="20" stroke="black" stroke-width="0.5" width="20" x="110" y="45" /><text alignment-baseline="central" font-size="8px" text-anchor="middle" x="120" y="55">25</text><rect fill="rgb(80,80,80)" height="20" stroke="black" stroke-width="0.5" width="20" x="130" y="45" /><text alignment-baseline="central" font-size="8px" text-anchor="middle" x="140" y="55">31</text><rect fill="rgb(155,155,155)" height="20" stroke="black" stroke-width="0.5" width="20" x="150" y="25" /><text alignment-baseline="central" font-size="8px" text-anchor="middle" x="160" y="35">36</text><rect fill="rgb(205,205,205)" height="20" stroke="black" stroke-width="0.5" width="20" x="170" y="25" /><text alignment-baseline="central" font-size="8px" text-anchor="middle" x="180" y="35">42</text><rect fill="rgb(130,130,130)" height="20" stroke="black" stroke-width="0.5" width="20" x="150" y="45" /><text alignment-baseline="central" font-size="8px" text-anchor="middle" x="160" y="55">37</text><rect fill="rgb(180,180,180)" height="20" stroke="black" stroke-width="0.5" width="20" x="170" y="45" /><text alignment-baseline="central" font-size="8px" text-anchor="middle" x="180" y="55">43</text><rect fill="rgb(205,205,205)" height="20" stroke="black" stroke-width="0.5" width="20" x="30" y="65" /><text alignment-baseline="central" font-size="8px" text-anchor="middle" x="40" y="75">2</text><rect fill="rgb(255,255,255)" height="20" stroke="black" stroke-width="0.5" width="20" x="50" y="65" /><text alignment-baseline="central" font-size="8px" text-anchor="middle" x="60" y="75">8</text><rect fill="rgb(180,180,180)" height="20" stroke="black" stroke-width="0.5" width="20" x="30" y="85" /><text alignment-baseline="central" font-size="8px" text-anchor="middle" x="40" y="95">3</text><rect fill="rgb(230,230,230)" height="20" stroke="black" stroke-width="0.5" width="20" x="50" y="85" /><text alignment-baseline="central" font-size="8px" text-anchor="middle" x="60" y="95">9</text><rect fill="rgb(105,105,105)" height="20" stroke="black" stroke-width="0.5" width="20" x="70" y="65" /><text alignment-baseline="central" font-size="8px" text-anchor="middle" x="80" y="75">14</text><rect fill="rgb(155,155,155)" height="20" stroke="black" stroke-width="0.5" width="20" x="90" y="65" /><text alignment-baseline="central" font-size="8px" text-anchor="middle" x="100" y="75">20</text><rect fill="rgb(80,80,80)" height="20" stroke="black" stroke-width="0.5" width="20" x="70" y="85" /><text alignment-baseline="central" font-size="8px" text-anchor="middle" x="80" y="95">15</text><rect fill="rgb(130,130,130)" height="20" stroke="black" stroke-width="0.5" width="20" x="90" y="85" /><text alignment-baseline="central" font-size="8px" text-anchor="middle" x="100" y="95">21</text><rect fill="rgb(205,205,205)" height="20" stroke="black" stroke-width="0.5" width="20" x="110" y="65" /><text alignment-baseline="central" font-size="8px" text-anchor="middle" x="120" y="75">26</text><rect fill="rgb(255,255,255)" height="20" stroke="black" stroke-width="0.5" width="20" x="130" y="65" /><text alignment-baseline="central" font-size="8px" text-anchor="middle" x="140" y="75">32</text><rect fill="rgb(180,180,180)" height="20" stroke="black" stroke-width="0.5" width="20" x="110" y="85" /><text alignment-baseline="central" font-size="8px" text-anchor="middle" x="120" y="95">27</text><rect fill="rgb(230,230,230)" height="20" stroke="black" stroke-width="0.5" width="20" x="130" y="85" /><text alignment-baseline="central" font-size="8px" text-anchor="middle" x="140" y="95">33</text><rect fill="rgb(105,105,105)" height="20" stroke="black" stroke-width="0.5" width="20" x="150" y="65" /><text alignment-baseline="central" font-size="8px" text-anchor="middle" x="160" y="75">38</text><rect fill="rgb(155,155,155)" height="20" stroke="black" stroke-width="0.5" width="20" x="170" y="65" /><text alignment-baseline="central" font-size="8px" text-anchor="middle" x="180" y="75">44</text><rect fill="rgb(80,80,80)" height="20" stroke="black" stroke-width="0.5" width="20" x="150" y="85" /><text alignment-baseline="central" font-size="8px" text-anchor="middle" x="160" y="95">39</text><rect fill="rgb(130,130,130)" height="20" stroke="black" stroke-width="0.5" width="20" x="170" y="85" /><text alignment-baseline="central" font-size="8px" text-anchor="middle" x="180" y="95">45</text><rect fill="rgb(155,155,155)" height="20" stroke="black" stroke-width="0.5" width="20" x="30" y="105" /><text alignment-baseline="central" font-size="8px" text-anchor="middle" x="40" y="115">4</text><rect fill="rgb(205,205,205)" height="20" stroke="black" stroke-width="0.5" width="20" x="50" y="105" /><text alignment-baseline="central" font-size="8px" text-anchor="middle" x="60" y="115">10</text><rect fill="rgb(130,130,130)" height="20" stroke="black" stroke-width="0.5" width="20" x="30" y="125" /><text alignment-baseline="central" font-size="8px" text-anchor="middle" x="40" y="135">5</text><rect fill="rgb(180,180,180)" height="20" stroke="black" stroke-width="0.5" width="20" x="50" y="125" /><text alignment-baseline="central" font-size="8px" text-anchor="middle" x="60" y="135">11</text><rect fill="rgb(255,255,255)" height="20" stroke="black" stroke-width="0.5" width="20" x="70" y="105" /><text alignment-baseline="central" font-size="8px" text-anchor="middle" x="80" y="115">16</text><rect fill="rgb(105,105,105)" height="20" stroke="black" stroke-width="0.5" width="20" x="90" y="105" /><text alignment-baseline="central" font-size="8px" text-anchor="middle" x="100" y="115">22</text><rect fill="rgb(230,230,230)" height="20" stroke="black" stroke-width="0.5" width="20" x="70" y="125" /><text alignment-baseline="central" font-size="8px" text-anchor="middle" x="80" y="135">17</text><rect fill="rgb(80,80,80)" height="20" stroke="black" stroke-width="0.5" width="20" x="90" y="125" /><text alignment-baseline="central" font-size="8px" text-anchor="middle" x="100" y="135">23</text><rect fill="rgb(155,155,155)" height="20" stroke="black" stroke-width="0.5" width="20" x="110" y="105" /><text alignment-baseline="central" font-size="8px" text-anchor="middle" x="120" y="115">28</text><rect fill="rgb(205,205,205)" height="20" stroke="black" stroke-width="0.5" width="20" x="130" y="105" /><text alignment-baseline="central" font-size="8px" text-anchor="middle" x="140" y="115">34</text><rect fill="rgb(130,130,130)" height="20" stroke="black" stroke-width="0.5" width="20" x="110" y="125" /><text alignment-baseline="central" font-size="8px" text-anchor="middle" x="120" y="135">29</text><rect fill="rgb(180,180,180)" height="20" stroke="black" stroke-width="0.5" width="20" x="130" y="125" /><text alignment-baseline="central" font-size="8px" text-anchor="middle" x="140" y="135">35</text><rect fill="rgb(255,255,255)" height="20" stroke="black" stroke-width="0.5" width="20" x="150" y="105" /><text alignment-baseline="central" font-size="8px" text-anchor="middle" x="160" y="115">40</text><rect fill="rgb(105,105,105)" height="20" stroke="black" stroke-width="0.5" width="20" x="170" y="105" /><text alignment-baseline="central" font-size="8px" text-anchor="middle" x="180" y="115">46</text><rect fill="rgb(230,230,230)" height="20" stroke="black" stroke-width="0.5" width="20" x="150" y="125" /><text alignment-baseline="central" font-size="8px" text-anchor="middle" x="160" y="135">41</text><rect fill="rgb(80,80,80)" height="20" stroke="black" stroke-width="0.5" width="20" x="170" y="125" /><text alignment-baseline="central" font-size="8px" text-anchor="middle" x="180" y="135">47</text><line stroke="blue" stroke-width="2" x1="30" x2="190" y1="25" y2="25" /><line stroke="blue" stroke-width="2" x1="30" x2="190" y1="65" y2="65" /><line stroke="blue" stroke-width="2" x1="30" x2="190" y1="105" y2="105" /><line stroke="blue" stroke-width="2" x1="30" x2="190" y1="145" y2="145" /><line stroke="blue" stroke-width="2" x1="30" x2="30" y1="25" y2="145" /><line stroke="blue" stroke-width="2" x1="70" x2="70" y1="25" y2="145" /><line stroke="blue" stroke-width="2" x1="110" x2="110" y1="25" y2="145" /><line stroke="blue" stroke-width="2" x1="150" x2="150" y1="25" y2="145" /><line stroke="blue" stroke-width="2" x1="190" x2="190" y1="25" y2="145" /><text alignment-baseline="baseline" font-size="8px" text-anchor="middle" x="40" y="20">0</text><text alignment-baseline="baseline" font-size="8px" text-anchor="middle" x="60" y="20">1</text><text alignment-baseline="baseline" font-size="8px" text-anchor="middle" x="80" y="20">0</text><text alignment-baseline="baseline" font-size="8px" text-anchor="middle" x="100" y="20">1</text><text alignment-baseline="baseline" font-size="8px" text-anchor="middle" x="120" y="20">0</text><text alignment-baseline="baseline" font-size="8px" text-anchor="middle" x="140" y="20">1</text><text alignment-baseline="baseline" font-size="8px" text-anchor="middle" x="160" y="20">0</text><text alignment-baseline="baseline" font-size="8px" text-anchor="middle" x="180" y="20">1</text><text alignment-baseline="baseline" fill="blue" font-size="10px" text-anchor="middle" x="50.0" y="10">0</text><text alignment-baseline="baseline" fill="blue" font-size="10px" text-anchor="middle" x="90.0" y="10">1</text><text alignment-baseline="baseline" fill="blue" font-size="10px" text-anchor="middle" x="130.0" y="10">2</text><text alignment-baseline="baseline" fill="blue" font-size="10px" text-anchor="middle" x="170.0" y="10">3</text><text alignment-baseline="central" fill="blue" font-size="10px" text-anchor="start" x="13" y="45.0">0</text><text alignment-baseline="central" fill="blue" font-size="10px" text-anchor="start" x="13" y="85.0">1</text><text alignment-baseline="central" fill="blue" font-size="10px" text-anchor="start" x="13" y="125.0">2</text><text alignment-baseline="central" font-size="8px" text-anchor="middle" x="22" y="35">0</text><text alignment-baseline="central" font-size="8px" text-anchor="middle" x="22" y="55">1</text><text alignment-baseline="central" font-size="8px" text-anchor="middle" x="22" y="75">0</text><text alignment-baseline="central" font-size="8px" text-anchor="middle" x="22" y="95">1</text><text alignment-baseline="central" font-size="8px" text-anchor="middle" x="22" y="115">0</text><text alignment-baseline="central" font-size="8px" text-anchor="middle" x="22" y="135">1</text></svg>