<?xml version="1.0" encoding="utf-8" ?>
<svg baseProfile="full" height="115" version="1.1" width="80" xmlns="http://www.w3.org/2000/svg" xmlns:ev="http://www.w3.org/2001/xml-events" xmlns:xlink="http://www.w3.org/1999/xlink"><defs /><rect fill="rgb(255,255,255)" height="20" stroke="black" stroke-width="0.5" width="20" x="30" y="25" /><text alignment-baseline="central" font-size="8px" text-anchor="middle" x="40" y="35">0</text><rect fill="rgb(205,205,205)" height="20" stroke="black" stroke-width="0.5" width="20" x="50" y="25" /><text alignment-baseline="central" font-size="8px" text-anchor="middle" x="60" y="35">2</text><rect fill="rgb(230,230,230)" height="20" stroke="black" stroke-width="0.5" width="20" x="30" y="45" /><text alignment-baseline="central" font-size="8px" text-anchor="middle" x="40" y="55">1</text><rect fill="rgb(180,180,180)" height="20" stroke="black" stroke-width="0.5" width="20" x="50" y="45" /><text alignment-baseline="central" font-size="8px" text-anchor="middle" x="60" y="55">3</text><rect fill="rgb(155,155,155)" height="20" stroke="black" stroke-width="0.5" width="20" x="30" y="65" /><text alignment-baseline="central" font-size="8px" text-anchor="middle" x="40" y="75">4</text><rect fill="rgb(105,105,105)" height="20" stroke="black" stroke-width="0.5" width="20" x="50" y="65" /><text alignment-baseline="central" font-size="8px" text-anchor="middle" x="60" y="75">6</text><rect fill="rgb(130,130,130)" height="20" stroke="black" stroke-width="0.5" width="20" x="30" y="85" /><text alignment-baseline="central" font-size="8px" text-anchor="middle" x="40" y="95">5</text><rect fill="rgb(80,80,80)" height="20" stroke="black" stroke-width="0.5" width="20" x="50" y="85" /><text alignment-baseline="central" font-size="8px" text-anchor="middle" x="60" y="95">7</text><line stroke="blue" stroke-width="2" x1="30" x2="70" y1="25" y2="25" /><line stroke="blue" stroke-width="2" x1="30" x2="70" y1="65" y2="65" /><line stroke="blue" stroke-width="2" x1="30" x2="70" y1="105" y2="105" /><line stroke="blue" stroke-width="2" x1="30" x2="30" y1="25" y2="105" /><line stroke="blue" stroke-width="2" x1="70" x2="70" y1="25" y2="105" /><text alignment-baseline="baseline" font-size="8px" text-anchor="middle" x="40" y="20">0</text><text alignment-baseline="baseline" font-size="8px" text-anchor="middle" x="60" y="20">1</text><text alignment-baseline="central" fill="blue" font-size="10px" text-anchor="start" x="13" y="45.0">0</text><text alignment-baseline="central" fill="blue" font-size="10px" text-anchor="start" x="13" y="85.0">1</text><text alignment-baseline="central" font-size="8px" text-anchor="middle" x="22" y="35">0</text><text alignment-baseline="central" font-size="8px" text-anchor="middle" x="22" y="55">1</text><text alignment-baseline="central" font-size="8px" text-anchor="middle" x="22" y="75">0</text><text alignment-baseline="central" font-size="8px" text-anchor="middle" x="22" y="95">1</text></svg>