<?xml version="1.0" encoding="utf-8" ?>
<svg baseProfile="full" height="100" version="1.1" width="260" xmlns="http://www.w3.org/2000/svg" xmlns:ev="http://www.w3.org/2001/xml-events" xmlns:xlink="http://www.w3.org/1999/xlink"><defs /><rect fill="rgb(255,255,255)" height="20" stroke="black" stroke-width="1" width="20" x="20" y="20" /><text alignment-baseline="central" font-size="8px" text-anchor="middle" x="30" y="30">0</text><rect fill="rgb(205,205,205)" height="20" stroke="black" stroke-width="1" width="20" x="40" y="20" /><text alignment-baseline="central" font-size="8px" text-anchor="middle" x="50" y="30">2</text><rect fill="rgb(155,155,155)" height="20" stroke="black" stroke-width="1" width="20" x="60" y="20" /><text alignment-baseline="central" font-size="8px" text-anchor="middle" x="70" y="30">4</text><rect fill="rgb(155,155,155)" height="20" stroke="black" stroke-width="1" width="20" x="80" y="20" /><text alignment-baseline="central" font-size="8px" text-anchor="middle" x="90" y="30">12</text><rect fill="rgb(105,105,105)" height="20" stroke="black" stroke-width="1" width="20" x="100" y="20" /><text alignment-baseline="central" font-size="8px" text-anchor="middle" x="110" y="30">14</text><rect fill="rgb(255,255,255)" height="20" stroke="black" stroke-width="1" width="20" x="120" y="20" /><text alignment-baseline="central" font-size="8px" text-anchor="middle" x="130" y="30">16</text><rect fill="rgb(255,255,255)" height="20" stroke="black" stroke-width="1" width="20" x="140" y="20" /><text alignment-baseline="central" font-size="8px" text-anchor="middle" x="150" y="30">24</text><rect fill="rgb(205,205,205)" height="20" stroke="black" stroke-width="1" width="20" x="160" y="20" /><text alignment-baseline="central" font-size="8px" text-anchor="middle" x="170" y="30">26</text><rect fill="rgb(155,155,155)" height="20" stroke="black" stroke-width="1" width="20" x="180" y="20" /><text alignment-baseline="central" font-size="8px" text-anchor="middle" x="190" y="30">28</text><rect fill="rgb(155,155,155)" height="20" stroke="black" stroke-width="1" width="20" x="200" y="20" /><text alignment-baseline="central" font-size="8px" text-anchor="middle" x="210" y="30">36</text><rect fill="rgb(105,105,105)" height="20" stroke="black" stroke-width="1" width="20" x="220" y="20" /><text alignment-baseline="central" font-size="8px" text-anchor="middle" x="230" y="30">38</text><rect fill="rgb(255,255,255)" height="20" stroke="black" stroke-width="1" width="20" x="240" y="20" /><text alignment-baseline="central" font-size="8px" text-anchor="middle" x="250" y="30">40</text><rect fill="rgb(230,230,230)" height="20" stroke="black" stroke-width="1" width="20" x="20" y="40" /><text alignment-baseline="central" font-size="8px" text-anchor="middle" x="30" y="50">1</text><rect fill="rgb(180,180,180)" height="20" stroke="black" stroke-width="1" width="20" x="40" y="40" /><text alignment-baseline="central" font-size="8px" text-anchor="middle" x="50" y="50">3</text><rect fill="rgb(130,130,130)" height="20" stroke="black" stroke-width="1" width="20" x="60" y="40" /><text alignment-baseline="central" font-size="8px" text-anchor="middle" x="70" y="50">5</text><rect fill="rgb(130,130,130)" height="20" stroke="black" stroke-width="1" width="20" x="80" y="40" /><text alignment-baseline="central" font-size="8px" text-anchor="middle" x="90" y="50">13</text><rect fill="rgb(80,80,80)" height="20" stroke="black" stroke-width="1" width="20" x="100" y="40" /><text alignment-baseline="central" font-size="8px" text-anchor="middle" x="110" y="50">15</text><rect fill="rgb(230,230,230)" height="20" stroke="black" stroke-width="1" width="20" x="120" y="40" /><text alignment-baseline="central" font-size="8px" text-anchor="middle" x="130" y="50">17</text><rect fill="rgb(230,230,230)" height="20" stroke="black" stroke-width="1" width="20" x="140" y="40" /><text alignment-baseline="central" font-size="8px" text-anchor="middle" x="150" y="50">25</text><rect fill="rgb(180,180,180)" height="20" stroke="black" stroke-width="1" width="20" x="160" y="40" /><text alignment-baseline="central" font-size="8px" text-anchor="middle" x="170" y="50">27</text><rect fill="rgb(130,130,130)" height="20" stroke="black" stroke-width="1" width="20" x="180" y="40" /><text alignment-baseline="central" font-size="8px" text-anchor="middle" x="190" y="50">29</text><rect fill="rgb(130,130,130)" height="20" stroke="black" stroke-width="1" width="20" x="200" y="40" /><text alignment-baseline="central" font-size="8px" text-anchor="middle" x="210" y="50">37</text><rect fill="rgb(80,80,80)" height="20" stroke="black" stroke-width="1" width="20" x="220" y="40" /><text alignment-baseline="central" font-size="8px" text-anchor="middle" x="230" y="50">39</text><rect fill="rgb(230,230,230)" height="20" stroke="black" stroke-width="1" width="20" x="240" y="40" /><text alignment-baseline="central" font-size="8px" text-anchor="middle" x="250" y="50">41</text><rect fill="rgb(105,105,105)" height="20" stroke="black" stroke-width="1" width="20" x="20" y="60" /><text alignment-baseline="central" font-size="8px" text-anchor="middle" x="30" y="70">6</text><rect fill="rgb(255,255,255)" height="20" stroke="black" stroke-width="1" width="20" x="40" y="60" /><text alignment-baseline="central" font-size="8px" text-anchor="middle" x="50" y="70">8</text><rect fill="rgb(205,205,205)" height="20" stroke="black" stroke-width="1" width="20" x="60" y="60" /><text alignment-baseline="central" font-size="8px" text-anchor="middle" x="70" y="70">10</text><rect fill="rgb(205,205,205)" height="20" stroke="black" stroke-width="1" width="20" x="80" y="60" /><text alignment-baseline="central" font-size="8px" text-anchor="middle" x="90" y="70">18</text><rect fill="rgb(155,155,155)" height="20" stroke="black" stroke-width="1" width="20" x="100" y="60" /><text alignment-baseline="central" font-size="8px" text-anchor="middle" x="110" y="70">20</text><rect fill="rgb(105,105,105)" height="20" stroke="black" stroke-width="1" width="20" x="120" y="60" /><text alignment-baseline="central" font-size="8px" text-anchor="middle" x="130" y="70">22</text><rect fill="rgb(105,105,105)" height="20" stroke="black" stroke-width="1" width="20" x="140" y="60" /><text alignment-baseline="central" font-size="8px" text-anchor="middle" x="150" y="70">30</text><rect fill="rgb(255,255,255)" height="20" stroke="black" stroke-width="1" width="20" x="160" y="60" /><text alignment-baseline="central" font-size="8px" text-anchor="middle" x="170" y="70">32</text><rect fill="rgb(205,205,205)" height="20" stroke="black" stroke-width="1" width="20" x="180" y="60" /><text alignment-baseline="central" font-size="8px" text-anchor="middle" x="190" y="70">34</text><rect fill="rgb(205,205,205)" height="20" stroke="black" stroke-width="1" width="20" x="200" y="60" /><text alignment-baseline="central" font-size="8px" text-anchor="middle" x="210" y="70">42</text><rect fill="rgb(155,155,155)" height="20" stroke="black" stroke-width="1" width="20" x="220" y="60" /><text alignment-baseline="central" font-size="8px" text-anchor="middle" x="230" y="70">44</text><rect fill="rgb(105,105,105)" height="20" stroke="black" stroke-width="1" width="20" x="240" y="60" /><text alignment-baseline="central" font-size="8px" text-anchor="middle" x="250" y="70">46</text><rect fill="rgb(80,80,80)" height="20" stroke="black" stroke-width="1" width="20" x="20" y="80" /><text alignment-baseline="central" font-size="8px" text-anchor="middle" x="30" y="90">7</text><rect fill="rgb(230,230,230)" height="20" stroke="black" stroke-width="1" width="20" x="40" y="80" /><text alignment-baseline="central" font-size="8px" text-anchor="middle" x="50" y="90">9</text><rect fill="rgb(180,180,180)" height="20" stroke="black" stroke-width="1" width="20" x="60" y="80" /><text alignment-baseline="central" font-size="8px" text-anchor="middle" x="70" y="90">11</text><rect fill="rgb(180,180,180)" height="20" stroke="black" stroke-width="1" width="20" x="80" y="80" /><text alignment-baseline="central" font-size="8px" text-anchor="middle" x="90" y="90">19</text><rect fill="rgb(130,130,130)" height="20" stroke="black" stroke-width="1" width="20" x="100" y="80" /><text alignment-baseline="central" font-size="8px" text-anchor="middle" x="110" y="90">21</text><rect fill="rgb(80,80,80)" height="20" stroke="black" stroke-width="1" width="20" x="120" y="80" /><text alignment-baseline="central" font-size="8px" text-anchor="middle" x="130" y="90">23</text><rect fill="rgb(80,80,80)" height="20" stroke="black" stroke-width="1" width="20" x="140" y="80" /><text alignment-baseline="central" font-size="8px" text-anchor="middle" x="150" y="90">31</text><rect fill="rgb(230,230,230)" height="20" stroke="black" stroke-width="1" width="20" x="160" y="80" /><text alignment-baseline="central" font-size="8px" text-anchor="middle" x="170" y="90">33</text><rect fill="rgb(180,180,180)" height="20" stroke="black" stroke-width="1" width="20" x="180" y="80" /><text alignment-baseline="central" font-size="8px" text-anchor="middle" x="190" y="90">35</text><rect fill="rgb(180,180,180)" height="20" stroke="black" stroke-width="1" width="20" x="200" y="80" /><text alignment-baseline="central" font-size="8px" text-anchor="middle" x="210" y="90">43</text><rect fill="rgb(130,130,130)" height="20" stroke="black" stroke-width="1" width="20" x="220" y="80" /><text alignment-baseline="central" font-size="8px" text-anchor="middle" x="230" y="90">45</text><rect fill="rgb(80,80,80)" height="20" stroke="black" stroke-width="1" width="20" x="240" y="80" /><text alignment-baseline="central" font-size="8px" text-anchor="middle" x="250" y="90">47</text><text alignment-baseline="central" font-size="8px" text-anchor="middle" x="30" y="10">0</text><text alignment-baseline="central" font-size="8px" text-anchor="middle" x="50" y="10">1</text><text alignment-baseline="central" font-size="8px" text-anchor="middle" x="70" y="10">2</text><text alignment-baseline="central" font-size="8px" text-anchor="middle" x="90" y="10">3</text><text alignment-baseline="central" font-size="8px" text-anchor="middle" x="110" y="10">4</text><text alignment-baseline="central" font-size="8px" text-anchor="middle" x="130" y="10">5</text><text alignment-baseline="central" font-size="8px" text-anchor="middle" x="150" y="10">6</text><text alignment-baseline="central" font-size="8px" text-anchor="middle" x="170" y="10">7</text><text alignment-baseline="central" font-size="8px" text-anchor="middle" x="190" y="10">8</text><text alignment-baseline="central" font-size="8px" text-anchor="middle" x="210" y="10">9</text><text alignment-baseline="central" font-size="8px" text-anchor="middle" x="230" y="10">10</text><text alignment-baseline="central" font-size="8px" text-anchor="middle" x="250" y="10">11</text><text alignment-baseline="central" font-size="8px" text-anchor="middle" x="10" y="30">0</text><text alignment-baseline="central" font-size="8px" text-anchor="middle" x="10" y="50">1</text><text alignment-baseline="central" font-size="8px" text-anchor="middle" x="10" y="70">2</text><text alignment-baseline="central" font-size="8px" text-anchor="middle" x="10" y="90">3</text></svg>