<svg xmlns="http://www.w3.org/2000/svg" xmlns:ev="http://www.w3.org/2001/xml-events" xmlns:xlink="http://www.w3.org/1999/xlink" baseProfile="full" height="180" version="1.1" width="180"><defs/><rect fill="white" height="20" stroke="black" width="20" x="20" y="20"/><rect fill="white" height="20" stroke="black" width="20" x="40" y="20"/><rect fill="white" height="20" stroke="black" width="20" x="60" y="20"/><rect fill="white" height="20" stroke="black" width="20" x="80" y="20"/><rect fill="white" height="20" stroke="black" width="20" x="100" y="20"/><rect fill="white" height="20" stroke="black" width="20" x="120" y="20"/><rect fill="white" height="20" stroke="black" width="20" x="140" y="20"/><rect fill="white" height="20" stroke="black" width="20" x="160" y="20"/><rect fill="white" height="20" stroke="black" width="20" x="20" y="40"/><rect fill="white" height="20" stroke="black" width="20" x="40" y="40"/><rect fill="white" height="20" stroke="black" width="20" x="60" y="40"/><rect fill="white" height="20" stroke="black" width="20" x="80" y="40"/><rect fill="white" height="20" stroke="black" width="20" x="100" y="40"/><rect fill="white" height="20" stroke="black" width="20" x="120" y="40"/><rect fill="white" height="20" stroke="black" width="20" x="140" y="40"/><rect fill="white" height="20" stroke="black" width="20" x="160" y="40"/><rect fill="white" height="20" stroke="black" width="20" x="20" y="60"/><rect fill="white" height="20" stroke="black" width="20" x="40" y="60"/><rect fill="white" height="20" stroke="black" width="20" x="60" y="60"/><rect fill="white" height="20" stroke="black" width="20" x="80" y="60"/><rect fill="white" height="20" stroke="black" width="20" x="100" y="60"/><rect fill="white" height="20" stroke="black" width="20" x="120" y="60"/><rect fill="white" height="20" stroke="black" width="20" x="140" y="60"/><rect fill="white" height="20" stroke="black" width="20" x="160" y="60"/><rect fill="white" height="20" stroke="black" width="20" x="20" y="80"/><rect fill="white" height="20" stroke="black" width="20" x="40" y="80"/><rect fill="white" height="20" stroke="black" width="20" x="60" y="80"/><rect fill="white" height="20" stroke="black" width="20" x="80" y="80"/><rect fill="white" height="20" stroke="black" width="20" x="100" y="80"/><rect fill="white" height="20" stroke="black" width="20" x="120" y="80"/><rect fill="white" height="20" stroke="black" width="20" x="140" y="80"/><rect fill="white" height="20" stroke="black" width="20" x="160" y="80"/><rect fill="white" height="20" stroke="black" width="20" x="20" y="100"/><rect fill="white" height="20" stroke="black" width="20" x="40" y="100"/><rect fill="white" height="20" stroke="black" width="20" x="60" y="100"/><rect fill="white" height="20" stroke="black" width="20" x="80" y="100"/><rect fill="white" height="20" stroke="black" width="20" x="100" y="100"/><rect fill="white" height="20" stroke="black" width="20" x="120" y="100"/><rect fill="white" height="20" stroke="black" width="20" x="140" y="100"/><rect fill="white" height="20" stroke="black" width="20" x="160" y="100"/><rect fill="white" height="20" stroke="black" width="20" x="20" y="120"/><rect fill="white" height="20" stroke="black" width="20" x="40" y="120"/><rect fill="white" height="20" stroke="black" width="20" x="60" y="120"/><rect fill="white" height="20" stroke="black" width="20" x="80" y="120"/><rect fill="white" height="20" stroke="black" width="20" x="100" y="120"/><rect fill="white" height="20" stroke="black" width="20" x="120" y="120"/><rect fill="white" height="20" stroke="black" width="20" x="140" y="120"/><rect fill="white" height="20" stroke="black" width="20" x="160" y="120"/><rect fill="white" height="20" stroke="black" width="20" x="20" y="140"/><rect fill="white" height="20" stroke="black" width="20" x="40" y="140"/><rect fill="white" height="20" stroke="black" width="20" x="60" y="140"/><rect fill="white" height="20" stroke="black" width="20" x="80" y="140"/><rect fill="white" height="20" stroke="black" width="20" x="100" y="140"/><rect fill="white" height="20" stroke="black" width="20" x="120" y="140"/><rect fill="white" height="20" stroke="black" width="20" x="140" y="140"/><rect fill="white" height="20" stroke="black" width="20" x="160" y="140"/><rect fill="white" height="20" stroke="black" width="20" x="20" y="160"/><rect fill="white" height="20" stroke="black" width="20" x="40" y="160"/><rect fill="white" height="20" stroke="black" width="20" x="60" y="160"/><rect fill="white" height="20" stroke="black" width="20" x="80" y="160"/><rect fill="white" height="20" stroke="black" width="20" x="100" y="160"/><rect fill="white" height="20" stroke="black" width="20" x="120" y="160"/><rect fill="white" height="20" stroke="black" width="20" x="140" y="160"/><rect fill="white" height="20" stroke="black" width="20" x="160" y="160"/><rect fill="rgb(175,175,255)" height="20" stroke="black" width="20" x="20" y="20"/><text alignment-baseline="central" font-size="8px" text-anchor="middle" x="30" y="25">T0</text><text alignment-baseline="central" font-size="8px" text-anchor="middle" x="30" y="35">V0</text><rect fill="rgb(175,175,255)" height="20" stroke="black" width="20" x="40" y="20"/><text alignment-baseline="central" font-size="8px" text-anchor="middle" x="50" y="25">T0</text><text alignment-baseline="central" font-size="8px" text-anchor="middle" x="50" y="35">V1</text><rect fill="rgb(175,175,255)" height="20" stroke="black" width="20" x="20" y="60"/><text alignment-baseline="central" font-size="8px" text-anchor="middle" x="30" y="65">T0</text><text alignment-baseline="central" font-size="8px" text-anchor="middle" x="30" y="75">V2</text><rect fill="rgb(175,175,255)" height="20" stroke="black" width="20" x="40" y="60"/><text alignment-baseline="central" font-size="8px" text-anchor="middle" x="50" y="65">T0</text><text alignment-baseline="central" font-size="8px" text-anchor="middle" x="50" y="75">V3</text><rect fill="rgb(175,175,255)" height="20" stroke="black" width="20" x="100" y="20"/><text alignment-baseline="central" font-size="8px" text-anchor="middle" x="110" y="25">T0</text><text alignment-baseline="central" font-size="8px" text-anchor="middle" x="110" y="35">V4</text><rect fill="rgb(175,175,255)" height="20" stroke="black" width="20" x="120" y="20"/><text alignment-baseline="central" font-size="8px" text-anchor="middle" x="130" y="25">T0</text><text alignment-baseline="central" font-size="8px" text-anchor="middle" x="130" y="35">V5</text><rect fill="rgb(175,175,255)" height="20" stroke="black" width="20" x="100" y="60"/><text alignment-baseline="central" font-size="8px" text-anchor="middle" x="110" y="65">T0</text><text alignment-baseline="central" font-size="8px" text-anchor="middle" x="110" y="75">V6</text><rect fill="rgb(175,175,255)" height="20" stroke="black" width="20" x="120" y="60"/><text alignment-baseline="central" font-size="8px" text-anchor="middle" x="130" y="65">T0</text><text alignment-baseline="central" font-size="8px" text-anchor="middle" x="130" y="75">V7</text><rect fill="rgb(175,255,175)" height="20" stroke="black" width="20" x="20" y="40"/><text alignment-baseline="central" font-size="8px" text-anchor="middle" x="30" y="45">T1</text><text alignment-baseline="central" font-size="8px" text-anchor="middle" x="30" y="55">V0</text><rect fill="rgb(175,255,175)" height="20" stroke="black" width="20" x="40" y="40"/><text alignment-baseline="central" font-size="8px" text-anchor="middle" x="50" y="45">T1</text><text alignment-baseline="central" font-size="8px" text-anchor="middle" x="50" y="55">V1</text><rect fill="rgb(175,255,175)" height="20" stroke="black" width="20" x="20" y="80"/><text alignment-baseline="central" font-size="8px" text-anchor="middle" x="30" y="85">T1</text><text alignment-baseline="central" font-size="8px" text-anchor="middle" x="30" y="95">V2</text><rect fill="rgb(175,255,175)" height="20" stroke="black" width="20" x="40" y="80"/><text alignment-baseline="central" font-size="8px" text-anchor="middle" x="50" y="85">T1</text><text alignment-baseline="central" font-size="8px" text-anchor="middle" x="50" y="95">V3</text><rect fill="rgb(175,255,175)" height="20" stroke="black" width="20" x="100" y="40"/><text alignment-baseline="central" font-size="8px" text-anchor="middle" x="110" y="45">T1</text><text alignment-baseline="central" font-size="8px" text-anchor="middle" x="110" y="55">V4</text><rect fill="rgb(175,255,175)" height="20" stroke="black" width="20" x="120" y="40"/><text alignment-baseline="central" font-size="8px" text-anchor="middle" x="130" y="45">T1</text><text alignment-baseline="central" font-size="8px" text-anchor="middle" x="130" y="55">V5</text><rect fill="rgb(175,255,175)" height="20" stroke="black" width="20" x="100" y="80"/><text alignment-baseline="central" font-size="8px" text-anchor="middle" x="110" y="85">T1</text><text alignment-baseline="central" font-size="8px" text-anchor="middle" x="110" y="95">V6</text><rect fill="rgb(175,255,175)" height="20" stroke="black" width="20" x="120" y="80"/><text alignment-baseline="central" font-size="8px" text-anchor="middle" x="130" y="85">T1</text><text alignment-baseline="central" font-size="8px" text-anchor="middle" x="130" y="95">V7</text><rect fill="rgb(255,255,175)" height="20" stroke="black" width="20" x="60" y="20"/><text alignment-baseline="central" font-size="8px" text-anchor="middle" x="70" y="25">T2</text><text alignment-baseline="central" font-size="8px" text-anchor="middle" x="70" y="35">V0</text><rect fill="rgb(255,255,175)" height="20" stroke="black" width="20" x="80" y="20"/><text alignment-baseline="central" font-size="8px" text-anchor="middle" x="90" y="25">T2</text><text alignment-baseline="central" font-size="8px" text-anchor="middle" x="90" y="35">V1</text><rect fill="rgb(255,255,175)" height="20" stroke="black" width="20" x="60" y="60"/><text alignment-baseline="central" font-size="8px" text-anchor="middle" x="70" y="65">T2</text><text alignment-baseline="central" font-size="8px" text-anchor="middle" x="70" y="75">V2</text><rect fill="rgb(255,255,175)" height="20" stroke="black" width="20" x="80" y="60"/><text alignment-baseline="central" font-size="8px" text-anchor="middle" x="90" y="65">T2</text><text alignment-baseline="central" font-size="8px" text-anchor="middle" x="90" y="75">V3</text><rect fill="rgb(255,255,175)" height="20" stroke="black" width="20" x="140" y="20"/><text alignment-baseline="central" font-size="8px" text-anchor="middle" x="150" y="25">T2</text><text alignment-baseline="central" font-size="8px" text-anchor="middle" x="150" y="35">V4</text><rect fill="rgb(255,255,175)" height="20" stroke="black" width="20" x="160" y="20"/><text alignment-baseline="central" font-size="8px" text-anchor="middle" x="170" y="25">T2</text><text alignment-baseline="central" font-size="8px" text-anchor="middle" x="170" y="35">V5</text><rect fill="rgb(255,255,175)" height="20" stroke="black" width="20" x="140" y="60"/><text alignment-baseline="central" font-size="8px" text-anchor="middle" x="150" y="65">T2</text><text alignment-baseline="central" font-size="8px" text-anchor="middle" x="150" y="75">V6</text><rect fill="rgb(255,255,175)" height="20" stroke="black" width="20" x="160" y="60"/><text alignment-baseline="central" font-size="8px" text-anchor="middle" x="170" y="65">T2</text><text alignment-baseline="central" font-size="8px" text-anchor="middle" x="170" y="75">V7</text><rect fill="rgb(255,175,175)" height="20" stroke="black" width="20" x="60" y="40"/><text alignment-baseline="central" font-size="8px" text-anchor="middle" x="70" y="45">T3</text><text alignment-baseline="central" font-size="8px" text-anchor="middle" x="70" y="55">V0</text><rect fill="rgb(255,175,175)" height="20" stroke="black" width="20" x="80" y="40"/><text alignment-baseline="central" font-size="8px" text-anchor="middle" x="90" y="45">T3</text><text alignment-baseline="central" font-size="8px" text-anchor="middle" x="90" y="55">V1</text><rect fill="rgb(255,175,175)" height="20" stroke="black" width="20" x="60" y="80"/><text alignment-baseline="central" font-size="8px" text-anchor="middle" x="70" y="85">T3</text><text alignment-baseline="central" font-size="8px" text-anchor="middle" x="70" y="95">V2</text><rect fill="rgb(255,175,175)" height="20" stroke="black" width="20" x="80" y="80"/><text alignment-baseline="central" font-size="8px" text-anchor="middle" x="90" y="85">T3</text><text alignment-baseline="central" font-size="8px" text-anchor="middle" x="90" y="95">V3</text><rect fill="rgb(255,175,175)" height="20" stroke="black" width="20" x="140" y="40"/><text alignment-baseline="central" font-size="8px" text-anchor="middle" x="150" y="45">T3</text><text alignment-baseline="central" font-size="8px" text-anchor="middle" x="150" y="55">V4</text><rect fill="rgb(255,175,175)" height="20" stroke="black" width="20" x="160" y="40"/><text alignment-baseline="central" font-size="8px" text-anchor="middle" x="170" y="45">T3</text><text alignment-baseline="central" font-size="8px" text-anchor="middle" x="170" y="55">V5</text><rect fill="rgb(255,175,175)" height="20" stroke="black" width="20" x="140" y="80"/><text alignment-baseline="central" font-size="8px" text-anchor="middle" x="150" y="85">T3</text><text alignment-baseline="central" font-size="8px" text-anchor="middle" x="150" y="95">V6</text><rect fill="rgb(255,175,175)" height="20" stroke="black" width="20" x="160" y="80"/><text alignment-baseline="central" font-size="8px" text-anchor="middle" x="170" y="85">T3</text><text alignment-baseline="central" font-size="8px" text-anchor="middle" x="170" y="95">V7</text><rect fill="rgb(210,210,255)" height="20" stroke="black" width="20" x="20" y="100"/><text alignment-baseline="central" font-size="8px" text-anchor="middle" x="30" y="105">T4</text><text alignment-baseline="central" font-size="8px" text-anchor="middle" x="30" y="115">V0</text><rect fill="rgb(210,210,255)" height="20" stroke="black" width="20" x="40" y="100"/><text alignment-baseline="central" font-size="8px" text-anchor="middle" x="50" y="105">T4</text><text alignment-baseline="central" font-size="8px" text-anchor="middle" x="50" y="115">V1</text><rect fill="rgb(210,210,255)" height="20" stroke="black" width="20" x="20" y="140"/><text alignment-baseline="central" font-size="8px" text-anchor="middle" x="30" y="145">T4</text><text alignment-baseline="central" font-size="8px" text-anchor="middle" x="30" y="155">V2</text><rect fill="rgb(210,210,255)" height="20" stroke="black" width="20" x="40" y="140"/><text alignment-baseline="central" font-size="8px" text-anchor="middle" x="50" y="145">T4</text><text alignment-baseline="central" font-size="8px" text-anchor="middle" x="50" y="155">V3</text><rect fill="rgb(210,210,255)" height="20" stroke="black" width="20" x="100" y="100"/><text alignment-baseline="central" font-size="8px" text-anchor="middle" x="110" y="105">T4</text><text alignment-baseline="central" font-size="8px" text-anchor="middle" x="110" y="115">V4</text><rect fill="rgb(210,210,255)" height="20" stroke="black" width="20" x="120" y="100"/><text alignment-baseline="central" font-size="8px" text-anchor="middle" x="130" y="105">T4</text><text alignment-baseline="central" font-size="8px" text-anchor="middle" x="130" y="115">V5</text><rect fill="rgb(210,210,255)" height="20" stroke="black" width="20" x="100" y="140"/><text alignment-baseline="central" font-size="8px" text-anchor="middle" x="110" y="145">T4</text><text alignment-baseline="central" font-size="8px" text-anchor="middle" x="110" y="155">V6</text><rect fill="rgb(210,210,255)" height="20" stroke="black" width="20" x="120" y="140"/><text alignment-baseline="central" font-size="8px" text-anchor="middle" x="130" y="145">T4</text><text alignment-baseline="central" font-size="8px" text-anchor="middle" x="130" y="155">V7</text><rect fill="rgb(210,255,210)" height="20" stroke="black" width="20" x="20" y="120"/><text alignment-baseline="central" font-size="8px" text-anchor="middle" x="30" y="125">T5</text><text alignment-baseline="central" font-size="8px" text-anchor="middle" x="30" y="135">V0</text><rect fill="rgb(210,255,210)" height="20" stroke="black" width="20" x="40" y="120"/><text alignment-baseline="central" font-size="8px" text-anchor="middle" x="50" y="125">T5</text><text alignment-baseline="central" font-size="8px" text-anchor="middle" x="50" y="135">V1</text><rect fill="rgb(210,255,210)" height="20" stroke="black" width="20" x="20" y="160"/><text alignment-baseline="central" font-size="8px" text-anchor="middle" x="30" y="165">T5</text><text alignment-baseline="central" font-size="8px" text-anchor="middle" x="30" y="175">V2</text><rect fill="rgb(210,255,210)" height="20" stroke="black" width="20" x="40" y="160"/><text alignment-baseline="central" font-size="8px" text-anchor="middle" x="50" y="165">T5</text><text alignment-baseline="central" font-size="8px" text-anchor="middle" x="50" y="175">V3</text><rect fill="rgb(210,255,210)" height="20" stroke="black" width="20" x="100" y="120"/><text alignment-baseline="central" font-size="8px" text-anchor="middle" x="110" y="125">T5</text><text alignment-baseline="central" font-size="8px" text-anchor="middle" x="110" y="135">V4</text><rect fill="rgb(210,255,210)" height="20" stroke="black" width="20" x="120" y="120"/><text alignment-baseline="central" font-size="8px" text-anchor="middle" x="130" y="125">T5</text><text alignment-baseline="central" font-size="8px" text-anchor="middle" x="130" y="135">V5</text><rect fill="rgb(210,255,210)" height="20" stroke="black" width="20" x="100" y="160"/><text alignment-baseline="central" font-size="8px" text-anchor="middle" x="110" y="165">T5</text><text alignment-baseline="central" font-size="8px" text-anchor="middle" x="110" y="175">V6</text><rect fill="rgb(210,255,210)" height="20" stroke="black" width="20" x="120" y="160"/><text alignment-baseline="central" font-size="8px" text-anchor="middle" x="130" y="165">T5</text><text alignment-baseline="central" font-size="8px" text-anchor="middle" x="130" y="175">V7</text><rect fill="rgb(255,255,210)" height="20" stroke="black" width="20" x="60" y="100"/><text alignment-baseline="central" font-size="8px" text-anchor="middle" x="70" y="105">T6</text><text alignment-baseline="central" font-size="8px" text-anchor="middle" x="70" y="115">V0</text><rect fill="rgb(255,255,210)" height="20" stroke="black" width="20" x="80" y="100"/><text alignment-baseline="central" font-size="8px" text-anchor="middle" x="90" y="105">T6</text><text alignment-baseline="central" font-size="8px" text-anchor="middle" x="90" y="115">V1</text><rect fill="rgb(255,255,210)" height="20" stroke="black" width="20" x="60" y="140"/><text alignment-baseline="central" font-size="8px" text-anchor="middle" x="70" y="145">T6</text><text alignment-baseline="central" font-size="8px" text-anchor="middle" x="70" y="155">V2</text><rect fill="rgb(255,255,210)" height="20" stroke="black" width="20" x="80" y="140"/><text alignment-baseline="central" font-size="8px" text-anchor="middle" x="90" y="145">T6</text><text alignment-baseline="central" font-size="8px" text-anchor="middle" x="90" y="155">V3</text><rect fill="rgb(255,255,210)" height="20" stroke="black" width="20" x="140" y="100"/><text alignment-baseline="central" font-size="8px" text-anchor="middle" x="150" y="105">T6</text><text alignment-baseline="central" font-size="8px" text-anchor="middle" x="150" y="115">V4</text><rect fill="rgb(255,255,210)" height="20" stroke="black" width="20" x="160" y="100"/><text alignment-baseline="central" font-size="8px" text-anchor="middle" x="170" y="105">T6</text><text alignment-baseline="central" font-size="8px" text-anchor="middle" x="170" y="115">V5</text><rect fill="rgb(255,255,210)" height="20" stroke="black" width="20" x="140" y="140"/><text alignment-baseline="central" font-size="8px" text-anchor="middle" x="150" y="145">T6</text><text alignment-baseline="central" font-size="8px" text-anchor="middle" x="150" y="155">V6</text><rect fill="rgb(255,255,210)" height="20" stroke="black" width="20" x="160" y="140"/><text alignment-baseline="central" font-size="8px" text-anchor="middle" x="170" y="145">T6</text><text alignment-baseline="central" font-size="8px" text-anchor="middle" x="170" y="155">V7</text><rect fill="rgb(255,210,210)" height="20" stroke="black" width="20" x="60" y="120"/><text alignment-baseline="central" font-size="8px" text-anchor="middle" x="70" y="125">T7</text><text alignment-baseline="central" font-size="8px" text-anchor="middle" x="70" y="135">V0</text><rect fill="rgb(255,210,210)" height="20" stroke="black" width="20" x="80" y="120"/><text alignment-baseline="central" font-size="8px" text-anchor="middle" x="90" y="125">T7</text><text alignment-baseline="central" font-size="8px" text-anchor="middle" x="90" y="135">V1</text><rect fill="rgb(255,210,210)" height="20" stroke="black" width="20" x="60" y="160"/><text alignment-baseline="central" font-size="8px" text-anchor="middle" x="70" y="165">T7</text><text alignment-baseline="central" font-size="8px" text-anchor="middle" x="70" y="175">V2</text><rect fill="rgb(255,210,210)" height="20" stroke="black" width="20" x="80" y="160"/><text alignment-baseline="central" font-size="8px" text-anchor="middle" x="90" y="165">T7</text><text alignment-baseline="central" font-size="8px" text-anchor="middle" x="90" y="175">V3</text><rect fill="rgb(255,210,210)" height="20" stroke="black" width="20" x="140" y="120"/><text alignment-baseline="central" font-size="8px" text-anchor="middle" x="150" y="125">T7</text><text alignment-baseline="central" font-size="8px" text-anchor="middle" x="150" y="135">V4</text><rect fill="rgb(255,210,210)" height="20" stroke="black" width="20" x="160" y="120"/><text alignment-baseline="central" font-size="8px" text-anchor="middle" x="170" y="125">T7</text><text alignment-baseline="central" font-size="8px" text-anchor="middle" x="170" y="135">V5</text><rect fill="rgb(255,210,210)" height="20" stroke="black" width="20" x="140" y="160"/><text alignment-baseline="central" font-size="8px" text-anchor="middle" x="150" y="165">T7</text><text alignment-baseline="central" font-size="8px" text-anchor="middle" x="150" y="175">V6</text><rect fill="rgb(255,210,210)" height="20" stroke="black" width="20" x="160" y="160"/><text alignment-baseline="central" font-size="8px" text-anchor="middle" x="170" y="165">T7</text><text alignment-baseline="central" font-size="8px" text-anchor="middle" x="170" y="175">V7</text><text alignment-baseline="central" font-size="8px" text-anchor="middle" x="30" y="10">0</text><text alignment-baseline="central" font-size="8px" text-anchor="middle" x="50" y="10">1</text><text alignment-baseline="central" font-size="8px" text-anchor="middle" x="70" y="10">2</text><text alignment-baseline="central" font-size="8px" text-anchor="middle" x="90" y="10">3</text><text alignment-baseline="central" font-size="8px" text-anchor="middle" x="110" y="10">4</text><text alignment-baseline="central" font-size="8px" text-anchor="middle" x="130" y="10">5</text><text alignment-baseline="central" font-size="8px" text-anchor="middle" x="150" y="10">6</text><text alignment-baseline="central" font-size="8px" text-anchor="middle" x="170" y="10">7</text><text alignment-baseline="central" font-size="8px" text-anchor="middle" x="10" y="30">0</text><text alignment-baseline="central" font-size="8px" text-anchor="middle" x="10" y="50">1</text><text alignment-baseline="central" font-size="8px" text-anchor="middle" x="10" y="70">2</text><text alignment-baseline="central" font-size="8px" text-anchor="middle" x="10" y="90">3</text><text alignment-baseline="central" font-size="8px" text-anchor="middle" x="10" y="110">4</text><text alignment-baseline="central" font-size="8px" text-anchor="middle" x="10" y="130">5</text><text alignment-baseline="central" font-size="8px" text-anchor="middle" x="10" y="150">6</text><text alignment-baseline="central" font-size="8px" text-anchor="middle" x="10" y="170">7</text></svg>